<svg width="90" height="90" viewBox="0 0 122 122" fill="none" xmlns="http://www.w3.org/2000/svg">
<path d="M61 0L122 61L61 122L0 61L61 0Z" fill="#03152D"/>
<mask id="mask0_518_514" style="mask-type:alpha" maskUnits="userSpaceOnUse" x="0" y="0" width="122" height="122">
<path d="M61 0L122 61L61 122L0 61L61 0Z" fill="#03152D"/>
</mask>
<g mask="url(#mask0_518_514)">
<line x1="-4" y1="85.5" x2="122" y2="85.5" stroke="white"/>
<line x1="-4" y1="89.5" x2="122" y2="89.5" stroke="white"/>
<line x1="-4" y1="81.5" x2="122" y2="81.5" stroke="white"/>
<line x1="-4" y1="77.5" x2="122" y2="77.5" stroke="white"/>
<line x1="-4" y1="73.5" x2="122" y2="73.5" stroke="white"/>
<line x1="-4" y1="69.5" x2="122" y2="69.5" stroke="white"/>
<line x1="-4" y1="65.5" x2="122" y2="65.5" stroke="white"/>
<line x1="-4" y1="105.5" x2="122" y2="105.5" stroke="white"/>
<line x1="-4" y1="109.5" x2="122" y2="109.5" stroke="white"/>
<line x1="-4" y1="101.5" x2="122" y2="101.5" stroke="white"/>
<line x1="-4" y1="97.5" x2="122" y2="97.5" stroke="white"/>
<line x1="-4" y1="93.5" x2="122" y2="93.5" stroke="white"/>
<line x1="-4" y1="121.5" x2="122" y2="121.5" stroke="white"/>
<line x1="-4" y1="117.5" x2="122" y2="117.5" stroke="white"/>
<line x1="-4" y1="113.5" x2="122" y2="113.5" stroke="white"/>
<line x1="-4" y1="89.5" x2="122" y2="89.5" stroke="white"/>
<line x1="-4" y1="85.5" x2="122" y2="85.5" stroke="white"/>
<line x1="-4" y1="61.5" x2="122" y2="61.5" stroke="white"/>
<line x1="-4" y1="57.5" x2="122" y2="57.5" stroke="white"/>
<line x1="-4" y1="53.5" x2="122" y2="53.5" stroke="white"/>
<line x1="-4" y1="49.5" x2="122" y2="49.5" stroke="white"/>
<line x1="-4" y1="45.5" x2="122" y2="45.5" stroke="white"/>
<line x1="-4" y1="41.5" x2="122" y2="41.5" stroke="white"/>
<line x1="-4" y1="37.5" x2="122" y2="37.5" stroke="white"/>
<line x1="-4" y1="33.5" x2="122" y2="33.5" stroke="white"/>
<line x1="-4" y1="29.5" x2="122" y2="29.5" stroke="white"/>
<line x1="-4" y1="25.5" x2="122" y2="25.5" stroke="white"/>
<line x1="-4" y1="21.5" x2="122" y2="21.5" stroke="white"/>
<line x1="-4" y1="17.5" x2="122" y2="17.5" stroke="white"/>
<line x1="-4" y1="13.5" x2="122" y2="13.5" stroke="white"/>
<line x1="-4" y1="9.5" x2="122" y2="9.5" stroke="white"/>
<line x1="-4" y1="5.5" x2="122" y2="5.5" stroke="white"/>
<line x1="-4" y1="1.5" x2="122" y2="1.5" stroke="white"/>
</g>
</svg>
