<svg width="90" height="90" viewBox="0 0 106 92" fill="none" xmlns="http://www.w3.org/2000/svg">
<path d="M53.0004 0L105.828 91.5H0.172852L53.0004 0Z" fill="#B6B6B6"/>
<mask id="mask0_518_484" style="mask-type:alpha" maskUnits="userSpaceOnUse" x="0" y="0" width="106" height="92">
<path d="M53.0004 0L105.828 91.5H0.172852L53.0004 0Z" fill="#B6B6B6"/>
</mask>
<g mask="url(#mask0_518_484)">
<path d="M-1 91.5H114" stroke="white"/>
<path d="M-1 85.5H114" stroke="white"/>
<path d="M-1 89.5H114" stroke="white"/>
<path d="M-1 81.5H114" stroke="white"/>
<path d="M-1 77.5H114" stroke="white"/>
<path d="M-1 73.5H114" stroke="white"/>
<path d="M-1 69.5H114" stroke="white"/>
<path d="M-1 65.5H114" stroke="white"/>
<path d="M-1 61.5H114" stroke="white"/>
<path d="M-1 57.5H114" stroke="white"/>
<path d="M-1 53.5H114" stroke="white"/>
<path d="M-1 49.5H114" stroke="white"/>
<path d="M-1 45.5H114" stroke="white"/>
<path d="M-1 41.5H114" stroke="white"/>
<path d="M-1 37.5H114" stroke="white"/>
<path d="M-1 33.5H114" stroke="white"/>
<path d="M-1 29.5H114" stroke="white"/>
<path d="M-1 25.5H114" stroke="white"/>
<path d="M-1 21.5H114" stroke="white"/>
<path d="M-1 17.5H114" stroke="white"/>
<path d="M-1 13.5H114" stroke="white"/>
<path d="M-1 9.5H114" stroke="white"/>
<path d="M-1 5.5H114" stroke="white"/>
<path d="M-1 1.5H114" stroke="white"/>
</g>
</svg>
